<svg xmlns="http://www.w3.org/2000/svg" width="99.402" height="99.402" viewBox="0 0 99.402 99.402"><g id="&#x421;&#x433;&#x440;&#x443;&#x43F;&#x43F;&#x438;&#x440;&#x43E;&#x432;&#x430;&#x442;&#x44C;_9505" data-name="&#x421;&#x433;&#x440;&#x443;&#x43F;&#x43F;&#x438;&#x440;&#x43E;&#x432;&#x430;&#x442;&#x44C; 9505" transform="translate(-276.833 -156.75)"><circle id="&#x42D;&#x43B;&#x43B;&#x438;&#x43F;&#x441;_522" data-name="&#x42D;&#x43B;&#x43B;&#x438;&#x43F;&#x441; 522" cx="49.701" cy="49.701" r="49.701" transform="translate(276.833 156.75)" fill="#f5b120"></circle><path id="&#x41A;&#x43E;&#x43D;&#x442;&#x443;&#x440;_8707" data-name="&#x41A;&#x43E;&#x43D;&#x442;&#x443;&#x440; 8707" d="M294.026,202.511a2.6,2.6,0,0,1-2.54-2.083l-7.142-35.27a2.6,2.6,0,0,1,5.089-1.031l7.142,35.27a2.6,2.6,0,0,1-2.031,3.062A2.656,2.656,0,0,1,294.026,202.511Z" transform="translate(24.439 17.364)" fill="#26192a"></path><path id="&#x41A;&#x43E;&#x43D;&#x442;&#x443;&#x440;_8708" data-name="&#x41A;&#x43E;&#x43D;&#x442;&#x443;&#x440; 8708" d="M297.107,201.983a2.6,2.6,0,0,1-2.562-2.207l-5.419-35.7a2.6,2.6,0,1,1,5.132-.778l5.419,35.7a2.6,2.6,0,0,1-2.177,2.955A2.4,2.4,0,0,1,297.107,201.983Z" transform="translate(40.18 14.219)" fill="#26192a"></path><path id="&#x41A;&#x43E;&#x43D;&#x442;&#x443;&#x440;_8709" data-name="&#x41A;&#x43E;&#x43D;&#x442;&#x443;&#x440; 8709" d="M309.224,207.414a23.612,23.612,0,0,1-12.471-3.383c-11.829-7.176-14.451-23.09-14.554-23.766a2.6,2.6,0,0,1,5.128-.808c.021.141,2.378,14.246,12.142,20.148,5.23,3.161,11.8,3.443,19.515.842,4.884-1.642,8.374-4.533,10.367-8.588,4.473-9.079.381-21.247.342-21.371a2.6,2.6,0,0,1,4.91-1.694c.2.577,4.841,14.289-.577,25.331-2.63,5.354-7.129,9.139-13.382,11.244A35.944,35.944,0,0,1,309.224,207.414Z" transform="translate(17.478 33.742)" fill="#26192a"></path></g></svg>